<svg viewBox="0 0 100 100" xmlns="http://www.w3.org/2000/svg">
  <!-- tentacles -->
  <g stroke="#f9a8d4" stroke-width="4" stroke-linecap="round" fill="none">
    <path d="M32 56 C 28 66, 36 72, 31 82 C 28 88, 33 92, 30 96"/>
    <path d="M44 58 C 41 68, 48 74, 44 84 C 42 90, 46 94, 44 98"/>
    <path d="M56 58 C 59 68, 52 74, 56 84 C 58 90, 54 94, 56 98"/>
    <path d="M68 56 C 72 66, 64 72, 69 82 C 72 88, 67 92, 70 96"/>
  </g>
  <!-- dome -->
  <path d="M18 46 C 18 25, 32 12, 50 12 C 68 12, 82 25, 82 46 Q 82 52 76 52 L 24 52 Q 18 52 18 46 Z" fill="#f472b6"/>
  <!-- dome highlight -->
  <path d="M26 40 C 27 27, 36 18, 48 17 C 38 22, 31 30, 30 42 Z" fill="#fbcfe8" opacity="0.85"/>
  <!-- scalloped frill -->
  <path d="M24 52 Q 30 60 36 52 Q 42 60 48 52 Q 54 60 60 52 Q 66 60 72 52 L 76 52 Q 70 63 62 55 Q 56 63 50 55 Q 44 63 38 55 Q 32 63 24 52 Z" fill="#ec4899"/>
  <!-- face -->
  <circle cx="41" cy="38" r="3.2" fill="#500724"/>
  <circle cx="59" cy="38" r="3.2" fill="#500724"/>
  <circle cx="42.2" cy="36.8" r="1" fill="#ffffff"/>
  <circle cx="60.2" cy="36.8" r="1" fill="#ffffff"/>
  <circle cx="34" cy="44" r="2.6" fill="#fb7185" opacity="0.7"/>
  <circle cx="66" cy="44" r="2.6" fill="#fb7185" opacity="0.7"/>
  <path d="M46 44 Q 50 48 54 44" stroke="#500724" stroke-width="2" stroke-linecap="round" fill="none"/>
</svg>
