<svg viewBox="0 0 100 100" xmlns="http://www.w3.org/2000/svg">
  <!-- tail (curl) -->
  <path d="M52 70 C 54 84, 44 93, 34 89 C 26 86, 25 76, 32 72 C 38 69, 44 74, 41 79"
        fill="none" stroke="#fb923c" stroke-width="7" stroke-linecap="round"/>
  <!-- dorsal fin -->
  <path d="M60 34 Q 74 38 63 44 Q 76 48 64 54 Q 74 58 62 63 L 58 60 Q 60 48 58 38 Z" fill="#fdba74"/>
  <!-- body -->
  <path d="M48 22 C 62 24, 66 38, 63 50 C 61 60, 57 66, 55 74 L 43 71 C 44 62, 45 54, 44 46 C 43 34, 42 26, 48 22 Z" fill="#fb923c"/>
  <!-- belly ridges -->
  <g stroke="#ffedd5" stroke-width="2.4" stroke-linecap="round" fill="none" opacity="0.9">
    <path d="M46 38 Q 52 40 58 39"/>
    <path d="M46 46 Q 52 48 59 47"/>
    <path d="M46 54 Q 51 56 57 55"/>
    <path d="M46 62 Q 50 64 55 63"/>
  </g>
  <!-- head -->
  <path d="M48 10 C 58 10, 62 18, 58 26 C 55 32, 48 34, 43 30 C 40 27, 39 22, 41 18 C 43 13, 45 10, 48 10 Z" fill="#fdba74"/>
  <!-- snout -->
  <path d="M42 20 L 24 22 Q 20 24 24 27 L 41 27 Z" fill="#fdba74"/>
  <!-- crown -->
  <path d="M46 10 L 44 4 L 49 8 L 52 3 L 54 9 Z" fill="#fb923c"/>
  <!-- eye -->
  <circle cx="49" cy="20" r="3.4" fill="#431407"/>
  <circle cx="50.2" cy="18.8" r="1.1" fill="#ffffff"/>
  <!-- cheek -->
  <circle cx="52" cy="27" r="2.4" fill="#fb7185" opacity="0.55"/>
</svg>
